# xmcd
#
# Track frame offsets:
#	150
#	19288
#	36772
#	56911
#	78509
#	98400
#	117341
#	139411
#	157943
#	177696
#	193018
#	210633
#	231266
#
# Disc length: 3453 seconds
# Revision: 0
# Processed by: cddbd v1.5.2PL0 Copyright (c) Steve Scherf et al.
# Submitted via: dBpowerAMP V12.0
#
DISCID=b60d7b0d
DTITLE=Belle Roscoe - Boom Boom
DYEAR=2013
DGENRE=Pop-Rock
TTITLE0=Boom Boom
TTITLE1=Side Stepping
TTITLE2=Mary Mary
TTITLE3=Bad Man
TTITLE4=Gun To My Head
TTITLE5=I Can See
TTITLE6=Known Better
TTITLE7=Sorry
TTITLE8=Paris 11
TTITLE9=Let Me Cut In
TTITLE10=Heartbreaker
TTITLE11=I Left Behind
TTITLE12=Up and Down
EXTD=
EXTT0=
EXTT1=
EXTT2=
EXTT3=
EXTT4=
EXTT5=
EXTT6=
EXTT7=
EXTT8=
EXTT9=
EXTT10=
EXTT11=
EXTT12=
PLAYORDER=
